<svg width="1040" height="1160" viewBox="0 0 1040 1160" xmlns="http://www.w3.org/2000/svg" font-family="Helvetica Now, Inter, Arial, sans-serif">
<rect x="0" y="0" width="1040" height="1160" fill="#FFFFFF"/>
<text x="230" y="36" font-size="13" font-weight="700" fill="#111111" text-anchor="middle">17–31 ago 2026</text>
<line x1="230" y1="46" x2="230" y2="1130" stroke="#8A8A8A" stroke-opacity="0.25" stroke-width="1"/>
<text x="520" y="36" font-size="13" font-weight="700" fill="#111111" text-anchor="middle">31 ago–7 sep 2026</text>
<line x1="520" y1="46" x2="520" y2="1130" stroke="#8A8A8A" stroke-opacity="0.25" stroke-width="1"/>
<text x="810" y="36" font-size="13" font-weight="700" fill="#111111" text-anchor="middle">8–22 sep 2026 (hoy)</text>
<line x1="810" y1="46" x2="810" y2="1130" stroke="#8A8A8A" stroke-opacity="0.25" stroke-width="1"/>
<path d="M 230,70 C 375.0,70 375.0,70 520,70 L 520,174 C 375.0,174 375.0,174 230,174 Z" fill="#1F4E5F" fill-opacity="0.85" stroke="none"/>
<path d="M 520,70 C 665.0,70 665.0,70 810,70 L 810,174 C 665.0,174 665.0,174 520,174 Z" fill="#1F4E5F" fill-opacity="0.85" stroke="none"/>
<path d="M 230,184 C 375.0,184 375.0,184 520,184 L 520,236 C 375.0,236 375.0,236 230,236 Z" fill="#1F4E5F" fill-opacity="0.85" stroke="none"/>
<path d="M 494,262.0 C 507.0,262.0 507.0,236 520,236 L 520,288 C 507.0,288 507.0,262.001 494,262.001 Z" fill="#1F4E5F" fill-opacity="0.55" stroke="none"/>
<path d="M 520,184 C 665.0,184 665.0,184 810,184 L 810,288 C 665.0,288 665.0,288 520,288 Z" fill="#1F4E5F" fill-opacity="0.85" stroke="none"/>
<path d="M 230,246 C 375.0,246 375.0,298 520,298 L 520,350 C 375.0,350 375.0,298 230,298 Z" fill="#1F4E5F" fill-opacity="0.85" stroke="none"/>
<path d="M 494,376.0 C 507.0,376.0 507.0,350 520,350 L 520,402 C 507.0,402 507.0,376.001 494,376.001 Z" fill="#1F4E5F" fill-opacity="0.55" stroke="none"/>
<path d="M 520,298 C 665.0,298 665.0,298 810,298 L 810,402 C 665.0,402 665.0,402 520,402 Z" fill="#1F4E5F" fill-opacity="0.85" stroke="none"/>
<path d="M 784,464.0 C 797.0,464.0 797.0,412 810,412 L 810,516 C 797.0,516 797.0,464.001 784,464.001 Z" fill="#1F4E5F" fill-opacity="0.9" stroke="none"/>
<path d="M 230,318 C 375.0,318 375.0,422 520,422 L 520,474 C 375.0,474 375.0,370 230,370 Z" fill="#5E8797" fill-opacity="0.85" stroke="none"/>
<path d="M 520,422 C 665.0,422 665.0,526 810,526 L 810,578 C 665.0,578 665.0,474 520,474 Z" fill="#1F4E5F" fill-opacity="0.85" stroke="none"/>
<path d="M 784,604.0 C 797.0,604.0 797.0,578 810,578 L 810,630 C 797.0,630 797.0,604.001 784,604.001 Z" fill="#1F4E5F" fill-opacity="0.55" stroke="none"/>
<path d="M 494,510.0 C 507.0,510.0 507.0,484 520,484 L 520,536 C 507.0,536 507.0,510.001 494,510.001 Z" fill="#5E8797" fill-opacity="0.9" stroke="none"/>
<path d="M 520,484 C 665.0,484 665.0,640 810,640 L 810,692 C 665.0,692 665.0,536 520,536 Z" fill="#1F4E5F" fill-opacity="0.85" stroke="none"/>
<path d="M 784,718.0 C 797.0,718.0 797.0,692 810,692 L 810,744 C 797.0,744 797.0,718.001 784,718.001 Z" fill="#1F4E5F" fill-opacity="0.55" stroke="none"/>
<path d="M 494,572.0 C 507.0,572.0 507.0,546 520,546 L 520,598 C 507.0,598 507.0,572.001 494,572.001 Z" fill="#5E8797" fill-opacity="0.9" stroke="none"/>
<path d="M 520,546 C 665.0,546 665.0,754 810,754 L 810,806 C 665.0,806 665.0,598 520,598 Z" fill="#1F4E5F" fill-opacity="0.85" stroke="none"/>
<path d="M 784,832.0 C 797.0,832.0 797.0,806 810,806 L 810,858 C 797.0,858 797.0,832.001 784,832.001 Z" fill="#1F4E5F" fill-opacity="0.55" stroke="none"/>
<path d="M 230,400 C 375.0,400 375.0,608 520,608 L 520,660 C 375.0,660 375.0,452 230,452 Z" fill="#1F4E5F" fill-opacity="0.85" stroke="none"/>
<path d="M 520,608 C 665.0,608 665.0,868 810,868 L 810,920 C 665.0,920 665.0,660 520,660 Z" fill="#1F4E5F" fill-opacity="0.85" stroke="none"/>
<path d="M 784,946.0 C 797.0,946.0 797.0,920 810,920 L 810,972 C 797.0,972 797.0,946.001 784,946.001 Z" fill="#1F4E5F" fill-opacity="0.55" stroke="none"/>
<path d="M 494,683.0 C 507.0,683.0 507.0,670 520,670 L 520,696 C 507.0,696 507.0,683.001 494,683.001 Z" fill="#8A8A8A" fill-opacity="0.9" stroke="none"/>
<path d="M 520,670 C 665.0,670 665.0,982 810,982 L 810,1008 C 665.0,1008 665.0,696 520,696 Z" fill="#8A8A8A" fill-opacity="0.85" stroke="none"/>
<path d="M 520,363.0 C 665.0,363.0 665.0,412 810,412 L 810,451.0 C 665.0,451.0 665.0,402.0 520,402.0 Z" fill="#1F4E5F" fill-opacity="0.5" stroke="none"/>
<rect x="227" y="70" width="6" height="104" fill="#1F4E5F"/>
<text x="218" y="126.0" font-size="11.5" fill="#111111" text-anchor="end">Bifurcación laboral</text>
<rect x="227" y="184" width="6" height="52" fill="#5E8797"/>
<text x="218" y="214.0" font-size="11.5" fill="#111111" text-anchor="end">Gobernanza rebasada</text>
<rect x="227" y="246" width="6" height="52" fill="#5E8797"/>
<text x="218" y="276.0" font-size="11.5" fill="#111111" text-anchor="end">Robótica China</text>
<rect x="227" y="318" width="6" height="52" fill="#5E8797"/>
<text x="218" y="348.0" font-size="11.5" fill="#111111" text-anchor="end">Respuesta institucional</text>
<rect x="227" y="400" width="6" height="104" fill="#1F4E5F"/>
<text x="218" y="456.0" font-size="11.5" fill="#111111" text-anchor="end">IA en contratación</text>
<rect x="517" y="70" width="6" height="104" fill="#1F4E5F"/>
<rect x="517" y="184" width="6" height="104" fill="#1F4E5F"/>
<rect x="517" y="298" width="6" height="104" fill="#1F4E5F"/>
<rect x="517" y="422" width="6" height="52" fill="#5E8797"/>
<rect x="517" y="484" width="6" height="52" fill="#5E8797"/>
<text x="508" y="514.0" font-size="11.5" fill="#111111" text-anchor="end">Redefinición del trabajo</text>
<rect x="517" y="546" width="6" height="52" fill="#5E8797"/>
<text x="508" y="576.0" font-size="11.5" fill="#111111" text-anchor="end">Riesgo macro IA</text>
<rect x="517" y="608" width="6" height="52" fill="#5E8797"/>
<rect x="517" y="670" width="6" height="26" fill="#8A8A8A"/>
<text x="508" y="687.0" font-size="11.5" fill="#111111" text-anchor="end">Señales débiles (9)</text>
<rect x="807" y="70" width="6" height="104" fill="#1F4E5F"/>
<text x="822" y="126.0" font-size="11.5" fill="#111111" text-anchor="start">Bifurcación laboral</text>
<rect x="807" y="184" width="6" height="104" fill="#1F4E5F"/>
<text x="822" y="240.0" font-size="11.5" fill="#111111" text-anchor="start">Gobernanza rebasada</text>
<rect x="807" y="298" width="6" height="104" fill="#1F4E5F"/>
<text x="822" y="354.0" font-size="11.5" fill="#111111" text-anchor="start">Robótica China</text>
<rect x="807" y="412" width="6" height="104" fill="#1F4E5F"/>
<text x="822" y="468.0" font-size="11.5" fill="#111111" text-anchor="start">Robótica global</text>
<rect x="807" y="526" width="6" height="104" fill="#1F4E5F"/>
<text x="822" y="582.0" font-size="11.5" fill="#111111" text-anchor="start">Respuesta institucional</text>
<rect x="807" y="640" width="6" height="104" fill="#1F4E5F"/>
<text x="822" y="696.0" font-size="11.5" fill="#111111" text-anchor="start">Redefinición del trabajo</text>
<rect x="807" y="754" width="6" height="104" fill="#1F4E5F"/>
<text x="822" y="810.0" font-size="11.5" fill="#111111" text-anchor="start">Riesgo macro IA</text>
<rect x="807" y="868" width="6" height="104" fill="#1F4E5F"/>
<text x="822" y="924.0" font-size="11.5" fill="#111111" text-anchor="start">IA en contratación</text>
<rect x="807" y="982" width="6" height="26" fill="#8A8A8A"/>
<text x="822" y="999.0" font-size="11.5" fill="#111111" text-anchor="start">Señales débiles (9)</text>
</svg>