<svg viewBox="0 0 1210 1470" xmlns="http://www.w3.org/2000/svg" font-family="Helvetica Now, Inter, Arial, sans-serif">
<rect x="0" y="0" width="1210" height="1470" fill="#FFFFFF"/>
<text x="170" y="36" font-size="12.5" font-weight="700" fill="#111111" text-anchor="middle">17–31 ago 2026</text>
<line x1="170" y1="46" x2="170" y2="1450" stroke="#8A8A8A" stroke-opacity="0.25" stroke-width="1"/>
<text x="430" y="36" font-size="12.5" font-weight="700" fill="#111111" text-anchor="middle">31 ago–7 sep 2026</text>
<line x1="430" y1="46" x2="430" y2="1450" stroke="#8A8A8A" stroke-opacity="0.25" stroke-width="1"/>
<text x="690" y="36" font-size="12.5" font-weight="700" fill="#111111" text-anchor="middle">8–22 sep 2026</text>
<line x1="690" y1="46" x2="690" y2="1450" stroke="#8A8A8A" stroke-opacity="0.25" stroke-width="1"/>
<text x="950" y="36" font-size="12.5" font-weight="700" fill="#111111" text-anchor="middle">23–28 sep 2026 (hoy)</text>
<line x1="950" y1="46" x2="950" y2="1450" stroke="#8A8A8A" stroke-opacity="0.25" stroke-width="1"/>
<path d="M 170,70 C 300.0,70 300.0,70 430,70 L 430,170 C 300.0,170 300.0,170 170,170 Z" fill="#1F4E5F" fill-opacity="0.85" stroke="none"/>
<path d="M 430,70 C 560.0,70 560.0,70 690,70 L 690,170 C 560.0,170 560.0,170 430,170 Z" fill="#1F4E5F" fill-opacity="0.85" stroke="none"/>
<path d="M 690,70 C 820.0,70 820.0,70 950,70 L 950,170 C 820.0,170 820.0,170 690,170 Z" fill="#1F4E5F" fill-opacity="0.85" stroke="none"/>
<path d="M 924,195.0 C 937.0,195.0 937.0,170 950,170 L 950,220 C 937.0,220 937.0,195.001 924,195.001 Z" fill="#1F4E5F" fill-opacity="0.55" stroke="none"/>
<path d="M 170,178 C 300.0,178 300.0,178 430,178 L 430,218 C 300.0,218 300.0,218 170,218 Z" fill="#1F4E5F" fill-opacity="0.85" stroke="none"/>
<path d="M 404,248.0 C 417.0,248.0 417.0,218 430,218 L 430,278 C 417.0,278 417.0,248.001 404,248.001 Z" fill="#1F4E5F" fill-opacity="0.55" stroke="none"/>
<path d="M 430,178 C 560.0,178 560.0,178 690,178 L 690,278 C 560.0,278 560.0,278 430,278 Z" fill="#1F4E5F" fill-opacity="0.85" stroke="none"/>
<path d="M 664,283.0 C 677.0,283.0 677.0,278 690,278 L 690,288 C 677.0,288 677.0,283.001 664,283.001 Z" fill="#1F4E5F" fill-opacity="0.55" stroke="none"/>
<path d="M 690,178 C 820.0,178 820.0,228 950,228 L 950,338 C 820.0,338 820.0,288 690,288 Z" fill="#1F4E5F" fill-opacity="0.85" stroke="none"/>
<path d="M 924,358.0 C 937.0,358.0 937.0,338 950,338 L 950,378 C 937.0,378 937.0,358.001 924,358.001 Z" fill="#1F4E5F" fill-opacity="0.55" stroke="none"/>
<path d="M 170,226 C 300.0,226 300.0,286 430,286 L 430,326 C 300.0,326 300.0,266 170,266 Z" fill="#1F4E5F" fill-opacity="0.85" stroke="none"/>
<path d="M 404,356.0 C 417.0,356.0 417.0,326 430,326 L 430,386 C 417.0,386 417.0,356.001 404,356.001 Z" fill="#1F4E5F" fill-opacity="0.55" stroke="none"/>
<path d="M 430,286 C 560.0,286 560.0,296 690,296 L 690,396 C 560.0,396 560.0,386 430,386 Z" fill="#1F4E5F" fill-opacity="0.85" stroke="none"/>
<path d="M 690,296 C 820.0,296 820.0,386 950,386 L 950,486 C 820.0,486 820.0,396 690,396 Z" fill="#1F4E5F" fill-opacity="0.85" stroke="none"/>
<path d="M 924,496.0 C 937.0,496.0 937.0,486 950,486 L 950,506 C 937.0,506 937.0,496.001 924,496.001 Z" fill="#1F4E5F" fill-opacity="0.55" stroke="none"/>
<path d="M 170,274 C 300.0,274 300.0,394 430,394 L 430,434 C 300.0,434 300.0,314 170,314 Z" fill="#1F4E5F" fill-opacity="0.85" stroke="none"/>
<path d="M 430,394 C 560.0,394 560.0,404 690,404 L 690,444 C 560.0,444 560.0,434 430,434 Z" fill="#1F4E5F" fill-opacity="0.85" stroke="none"/>
<path d="M 664,469.0 C 677.0,469.0 677.0,444 690,444 L 690,494 C 677.0,494 677.0,469.001 664,469.001 Z" fill="#1F4E5F" fill-opacity="0.55" stroke="none"/>
<path d="M 690,404 C 820.0,404 820.0,514 950,514 L 950,604 C 820.0,604 820.0,494 690,494 Z" fill="#1F4E5F" fill-opacity="0.85" stroke="none"/>
<path d="M 924,619.0 C 937.0,619.0 937.0,604 950,604 L 950,634 C 937.0,634 937.0,619.001 924,619.001 Z" fill="#1F4E5F" fill-opacity="0.55" stroke="none"/>
<path d="M 404,462.0 C 417.0,462.0 417.0,442 430,442 L 430,482 C 417.0,482 417.0,462.001 404,462.001 Z" fill="#1F4E5F" fill-opacity="0.9" stroke="none"/>
<path d="M 430,442 C 560.0,442 560.0,502 690,502 L 690,542 C 560.0,542 560.0,482 430,482 Z" fill="#1F4E5F" fill-opacity="0.85" stroke="none"/>
<path d="M 664,577.0 C 677.0,577.0 677.0,542 690,542 L 690,612 C 677.0,612 677.0,577.001 664,577.001 Z" fill="#1F4E5F" fill-opacity="0.55" stroke="none"/>
<path d="M 690,502 C 820.0,502 820.0,642 950,642 L 950,752 C 820.0,752 820.0,612 690,612 Z" fill="#1F4E5F" fill-opacity="0.85" stroke="none"/>
<path d="M 924,767.0 C 937.0,767.0 937.0,752 950,752 L 950,782 C 937.0,782 937.0,767.001 924,767.001 Z" fill="#1F4E5F" fill-opacity="0.55" stroke="none"/>
<path d="M 404,510.0 C 417.0,510.0 417.0,490 430,490 L 430,530 C 417.0,530 417.0,510.001 404,510.001 Z" fill="#1F4E5F" fill-opacity="0.9" stroke="none"/>
<path d="M 430,490 C 560.0,490 560.0,620 690,620 L 690,660 C 560.0,660 560.0,530 430,530 Z" fill="#1F4E5F" fill-opacity="0.85" stroke="none"/>
<path d="M 664,680.0 C 677.0,680.0 677.0,660 690,660 L 690,700 C 677.0,700 677.0,680.001 664,680.001 Z" fill="#1F4E5F" fill-opacity="0.55" stroke="none"/>
<path d="M 690,620 C 820.0,620 820.0,790 950,790 L 950,870 C 820.0,870 820.0,700 690,700 Z" fill="#1F4E5F" fill-opacity="0.85" stroke="none"/>
<path d="M 924,880.0 C 937.0,880.0 937.0,870 950,870 L 950,890 C 937.0,890 937.0,880.001 924,880.001 Z" fill="#1F4E5F" fill-opacity="0.55" stroke="none"/>
<path d="M 664,758.0 C 677.0,758.0 677.0,708 690,708 L 690,808 C 677.0,808 677.0,758.001 664,758.001 Z" fill="#1F4E5F" fill-opacity="0.9" stroke="none"/>
<path d="M 690,708 C 820.0,708 820.0,898 950,898 L 950,998 C 820.0,998 820.0,808 690,808 Z" fill="#1F4E5F" fill-opacity="0.85" stroke="none"/>
<path d="M 924,1038.0 C 937.0,1038.0 937.0,998 950,998 L 950,1078 C 937.0,1078 937.0,1038.001 924,1038.001 Z" fill="#1F4E5F" fill-opacity="0.55" stroke="none"/>
<path d="M 170,346 C 300.0,346 300.0,546 430,546 L 430,586 C 300.0,586 300.0,386 170,386 Z" fill="#1F4E5F" fill-opacity="0.85" stroke="none"/>
<path d="M 430,546 C 560.0,546 560.0,816 690,816 L 690,856 C 560.0,856 560.0,586 430,586 Z" fill="#1F4E5F" fill-opacity="0.85" stroke="none"/>
<path d="M 664,886.0 C 677.0,886.0 677.0,856 690,856 L 690,916 C 677.0,916 677.0,886.001 664,886.001 Z" fill="#1F4E5F" fill-opacity="0.55" stroke="none"/>
<path d="M 690,816 C 820.0,816 820.0,1086 950,1086 L 950,1186 C 820.0,1186 820.0,916 690,916 Z" fill="#1F4E5F" fill-opacity="0.85" stroke="none"/>
<path d="M 924,1206.0 C 937.0,1206.0 937.0,1186 950,1186 L 950,1226 C 937.0,1226 937.0,1206.001 924,1206.001 Z" fill="#1F4E5F" fill-opacity="0.55" stroke="none"/>
<path d="M 924,1249.0 C 937.0,1249.0 937.0,1234 950,1234 L 950,1264 C 937.0,1264 937.0,1249.001 924,1249.001 Z" fill="#5E8797" fill-opacity="0.9" stroke="none"/>
<path d="M 664,942.0 C 677.0,942.0 677.0,932 690,932 L 690,952 C 677.0,952 677.0,942.001 664,942.001 Z" fill="#5E8797" fill-opacity="0.9" stroke="none"/>
<path d="M 690,932 C 820.0,932 820.0,1272 950,1272 L 950,1292 C 820.0,1292 820.0,952 690,952 Z" fill="#5E8797" fill-opacity="0.85" stroke="none"/>
<path d="M 404,635.0 C 417.0,635.0 417.0,610 430,610 L 430,660 C 417.0,660 417.0,635.001 404,635.001 Z" fill="#8A8A8A" fill-opacity="0.9" stroke="none"/>
<path d="M 430,610 C 560.0,610 560.0,960 690,960 L 690,1010 C 560.0,1010 560.0,660 430,660 Z" fill="#8A8A8A" fill-opacity="0.85" stroke="none"/>
<path d="M 664,1025.0 C 677.0,1025.0 677.0,1010 690,1010 L 690,1040 C 677.0,1040 677.0,1025.001 664,1025.001 Z" fill="#8A8A8A" fill-opacity="0.55" stroke="none"/>
<path d="M 690,960 C 820.0,960 820.0,1300 950,1300 L 950,1380 C 820.0,1380 820.0,1040 690,1040 Z" fill="#8A8A8A" fill-opacity="0.85" stroke="none"/>
<path d="M 924,1390.0 C 937.0,1390.0 937.0,1380 950,1380 L 950,1400 C 937.0,1400 937.0,1390.001 924,1390.001 Z" fill="#8A8A8A" fill-opacity="0.55" stroke="none"/>
<path d="M 430,356 C 560.0,356 560.0,708 690,708 L 690,738 C 560.0,738 560.0,386 430,386 Z" fill="#1F4E5F" fill-opacity="0.45" stroke="none"/>
<rect x="167" y="70" width="6" height="100" fill="#1F4E5F"/>
<text x="158" y="124.0" font-size="11.5" fill="#111111" text-anchor="end">Bifurcación laboral</text>
<rect x="167" y="178" width="6" height="40" fill="#1F4E5F"/>
<text x="158" y="202.0" font-size="11.5" fill="#111111" text-anchor="end">Gobernanza rebasada</text>
<rect x="167" y="226" width="6" height="40" fill="#1F4E5F"/>
<text x="158" y="250.0" font-size="11.5" fill="#111111" text-anchor="end">Robótica China</text>
<rect x="167" y="274" width="6" height="40" fill="#1F4E5F"/>
<text x="158" y="298.0" font-size="11.5" fill="#111111" text-anchor="end">Respuesta institucional</text>
<rect x="167" y="346" width="6" height="100" fill="#1F4E5F"/>
<text x="158" y="400.0" font-size="11.5" fill="#111111" text-anchor="end">IA en contratación</text>
<rect x="427" y="70" width="6" height="100" fill="#1F4E5F"/>
<rect x="427" y="178" width="6" height="100" fill="#1F4E5F"/>
<rect x="427" y="286" width="6" height="100" fill="#1F4E5F"/>
<rect x="427" y="394" width="6" height="40" fill="#1F4E5F"/>
<rect x="427" y="442" width="6" height="40" fill="#1F4E5F"/>
<text x="418" y="466.0" font-size="11.5" fill="#111111" text-anchor="end">Redefinición del trabajo</text>
<rect x="427" y="490" width="6" height="40" fill="#1F4E5F"/>
<text x="418" y="514.0" font-size="11.5" fill="#111111" text-anchor="end">Riesgo macro IA</text>
<rect x="427" y="546" width="6" height="40" fill="#1F4E5F"/>
<rect x="427" y="610" width="6" height="50" fill="#8A8A8A"/>
<text x="418" y="639.0" font-size="11.5" fill="#111111" text-anchor="end">Otras señales débiles</text>
<rect x="687" y="70" width="6" height="100" fill="#1F4E5F"/>
<rect x="687" y="178" width="6" height="110" fill="#1F4E5F"/>
<rect x="687" y="296" width="6" height="100" fill="#1F4E5F"/>
<rect x="687" y="404" width="6" height="90" fill="#1F4E5F"/>
<rect x="687" y="502" width="6" height="110" fill="#1F4E5F"/>
<rect x="687" y="620" width="6" height="80" fill="#1F4E5F"/>
<rect x="687" y="708" width="6" height="100" fill="#1F4E5F"/>
<text x="678" y="762.0" font-size="11.5" fill="#111111" text-anchor="end">Robótica global</text>
<rect x="687" y="816" width="6" height="100" fill="#1F4E5F"/>
<rect x="687" y="932" width="6" height="20" fill="#5E8797"/>
<text x="678" y="946.0" font-size="11.5" fill="#111111" text-anchor="end">Ordenanza San Mateo</text>
<rect x="687" y="960" width="6" height="80" fill="#8A8A8A"/>
<rect x="947" y="70" width="6" height="150" fill="#1F4E5F"/>
<text x="962" y="149.0" font-size="11.5" fill="#111111" text-anchor="start">Bifurcación laboral (15)</text>
<rect x="947" y="228" width="6" height="150" fill="#1F4E5F"/>
<text x="962" y="307.0" font-size="11.5" fill="#111111" text-anchor="start">Gobernanza rebasada (15)</text>
<rect x="947" y="386" width="6" height="120" fill="#1F4E5F"/>
<text x="962" y="450.0" font-size="11.5" fill="#111111" text-anchor="start">Robótica China (12)</text>
<rect x="947" y="514" width="6" height="120" fill="#1F4E5F"/>
<text x="962" y="578.0" font-size="11.5" fill="#111111" text-anchor="start">Respuesta institucional (12)</text>
<rect x="947" y="642" width="6" height="140" fill="#1F4E5F"/>
<text x="962" y="716.0" font-size="11.5" fill="#111111" text-anchor="start">Redefinición del trabajo (14)</text>
<rect x="947" y="790" width="6" height="100" fill="#1F4E5F"/>
<text x="962" y="844.0" font-size="11.5" fill="#111111" text-anchor="start">Riesgo macro IA (10)</text>
<rect x="947" y="898" width="6" height="180" fill="#1F4E5F"/>
<text x="962" y="992.0" font-size="11.5" fill="#111111" text-anchor="start">Robótica global (18)</text>
<rect x="947" y="1086" width="6" height="140" fill="#1F4E5F"/>
<text x="962" y="1160.0" font-size="11.5" fill="#111111" text-anchor="start">IA en contratación (14)</text>
<rect x="947" y="1234" width="6" height="30" fill="#5E8797"/>
<text x="962" y="1253.0" font-size="11.5" fill="#111111" text-anchor="start">Riesgo existencial IA (discurso) (3)</text>
<rect x="947" y="1272" width="6" height="20" fill="#5E8797"/>
<text x="962" y="1286.0" font-size="11.5" fill="#111111" text-anchor="start">Ordenanza San Mateo (2)</text>
<rect x="947" y="1300" width="6" height="100" fill="#8A8A8A"/>
<text x="962" y="1354.0" font-size="11.5" fill="#111111" text-anchor="start">Otras señales débiles (10)</text>
</svg>